# xmcd
#
# Track frame offsets: 
#        150
#        11584
#        21987
#        32394
#        42392
#        67016
#        79626
#        90064
#        100679
#        111862
#        123830
#        133767
#
# Disc length: 1927 seconds
#
# Revision: 0
# Processed by: cddbd v1.5.2PL0 Copyright (c) Steve Scherf et al.
# Submitted via: ExactAudioCopy v0.99pb5
#
DISCID=8a07850c
DTITLE=Arthur "Big Boy" Crudup - The Blues
DYEAR=2012
DGENRE=Blues
TTITLE0=Mean Old Frisco
TTITLE1=I'm in the Mood
TTITLE2=That's All Right
TTITLE3=Standin' At My Window
TTITLE4=Angel Child Take One
TTITLE5=Katie Mae
TTITLE6=Look On Yonder Wall
TTITLE7=Dig Myself A Hole
TTITLE8=If I Get Lucky
TTITLE9=Death Valley Blues
TTITLE10=I Love Her Just The Same
TTITLE11=Rock Me Mama
EXTD=
EXTT0=
EXTT1=
EXTT2=
EXTT3=
EXTT4=
EXTT5=
EXTT6=
EXTT7=
EXTT8=
EXTT9=
EXTT10=
EXTT11=
PLAYORDER=
